<svg width="1440" height="524" viewBox="0 0 1440 524" fill="none" xmlns="http://www.w3.org/2000/svg">
<path d="M1440.5 214C1440.5 214 1386.12 223.092 1352.5 255.5C1327.57 279.534 1371.03 355.591 1336.5 375C1300.24 395.383 1219.18 331.578 1204 359.813C1189.2 387.346 1259.83 442.764 1233.16 466.949C1205.36 492.162 1143.28 473.206 1094 480.5C1043.55 487.968 1007.04 506.142 958 512.5C889 521.445 792 524 792 524H1440.5V214Z" fill="#9FD6D2"/>
<path d="M-1 0C-1 0 41.8585 90.8243 75.5 145.5C100.448 186.047 109.942 213.255 144.5 246C180.792 280.389 239.312 263.866 254.5 311.5C269.311 357.951 179.812 385.947 206.5 426.75C234.322 469.286 287.185 408.195 336.5 420.5C386.991 433.098 402.45 469.517 450.5 489.5C521.844 519.171 629.5 523 629.5 523H-1V0Z" fill="#9FD6D2"/>
<ellipse cx="158.5" cy="144.5" rx="29.5" ry="25.5" fill="#9FD6D2"/>
<ellipse cx="1254.94" cy="255.287" rx="32" ry="39.5" transform="rotate(20.7932 1254.94 255.287)" fill="#9FD6D2"/>
</svg>
